<mxfile host="app.diagrams.net" modified="2020-07-30T03:59:17.192Z" agent="5.0 (Macintosh; Intel Mac OS X 10_15_5) AppleWebKit/537.36 (KHTML, like Gecko) Chrome/83.0.4103.116 Safari/537.36" etag="TvyQfJIBXEXPpYi6wDB6" version="13.5.5" type="github">
  <diagram id="xXOAfpRkO7oq2K6r2bVf" name="Page-1">
    <mxGraphModel dx="1426" dy="754" grid="1" gridSize="10" guides="1" tooltips="1" connect="1" arrows="1" fold="1" page="1" pageScale="1" pageWidth="827" pageHeight="1169" math="0" shadow="0">
      <root>
        <mxCell id="0" />
        <mxCell id="1" parent="0" />
        <mxCell id="nlnA7nwr5EOGX_mSEBAv-14" value="" style="rounded=1;whiteSpace=wrap;html=1;" parent="1" vertex="1">
          <mxGeometry x="1340" y="233" width="120" height="430" as="geometry" />
        </mxCell>
        <mxCell id="Iiy-4Ej51L4zw9ELq6eo-1" value="List" style="swimlane;fontStyle=0;childLayout=stackLayout;horizontal=1;startSize=26;horizontalStack=0;resizeParent=1;resizeParentMax=0;resizeLast=0;collapsible=1;marginBottom=0;align=center;fontSize=14;" vertex="1" parent="1">
          <mxGeometry x="1350.5" y="263" width="99" height="86" as="geometry" />
        </mxCell>
        <mxCell id="Iiy-4Ej51L4zw9ELq6eo-2" value="Item 1" style="text;strokeColor=none;fillColor=none;spacingLeft=4;spacingRight=4;overflow=hidden;rotatable=0;points=[[0,0.5],[1,0.5]];portConstraint=eastwest;fontSize=12;" vertex="1" parent="Iiy-4Ej51L4zw9ELq6eo-1">
          <mxGeometry y="26" width="99" height="30" as="geometry" />
        </mxCell>
        <mxCell id="Iiy-4Ej51L4zw9ELq6eo-3" value="Item 2" style="text;strokeColor=none;fillColor=none;spacingLeft=4;spacingRight=4;overflow=hidden;rotatable=0;points=[[0,0.5],[1,0.5]];portConstraint=eastwest;fontSize=12;" vertex="1" parent="Iiy-4Ej51L4zw9ELq6eo-1">
          <mxGeometry y="56" width="99" height="30" as="geometry" />
        </mxCell>
        <mxCell id="Iiy-4Ej51L4zw9ELq6eo-5" value="List" style="swimlane;fontStyle=0;childLayout=stackLayout;horizontal=1;startSize=26;horizontalStack=0;resizeParent=1;resizeParentMax=0;resizeLast=0;collapsible=1;marginBottom=0;align=center;fontSize=14;" vertex="1" parent="1">
          <mxGeometry x="1350.5" y="373" width="99" height="86" as="geometry" />
        </mxCell>
        <mxCell id="Iiy-4Ej51L4zw9ELq6eo-6" value="Item 1" style="text;strokeColor=none;fillColor=none;spacingLeft=4;spacingRight=4;overflow=hidden;rotatable=0;points=[[0,0.5],[1,0.5]];portConstraint=eastwest;fontSize=12;" vertex="1" parent="Iiy-4Ej51L4zw9ELq6eo-5">
          <mxGeometry y="26" width="99" height="30" as="geometry" />
        </mxCell>
        <mxCell id="Iiy-4Ej51L4zw9ELq6eo-7" value="Item 2" style="text;strokeColor=none;fillColor=none;spacingLeft=4;spacingRight=4;overflow=hidden;rotatable=0;points=[[0,0.5],[1,0.5]];portConstraint=eastwest;fontSize=12;" vertex="1" parent="Iiy-4Ej51L4zw9ELq6eo-5">
          <mxGeometry y="56" width="99" height="30" as="geometry" />
        </mxCell>
        <mxCell id="Iiy-4Ej51L4zw9ELq6eo-8" value="List" style="swimlane;fontStyle=0;childLayout=stackLayout;horizontal=1;startSize=26;horizontalStack=0;resizeParent=1;resizeParentMax=0;resizeLast=0;collapsible=1;marginBottom=0;align=center;fontSize=14;" vertex="1" parent="1">
          <mxGeometry x="1350.5" y="483" width="99" height="86" as="geometry" />
        </mxCell>
        <mxCell id="Iiy-4Ej51L4zw9ELq6eo-9" value="Item 1" style="text;strokeColor=none;fillColor=none;spacingLeft=4;spacingRight=4;overflow=hidden;rotatable=0;points=[[0,0.5],[1,0.5]];portConstraint=eastwest;fontSize=12;" vertex="1" parent="Iiy-4Ej51L4zw9ELq6eo-8">
          <mxGeometry y="26" width="99" height="30" as="geometry" />
        </mxCell>
        <mxCell id="Iiy-4Ej51L4zw9ELq6eo-10" value="Item 2" style="text;strokeColor=none;fillColor=none;spacingLeft=4;spacingRight=4;overflow=hidden;rotatable=0;points=[[0,0.5],[1,0.5]];portConstraint=eastwest;fontSize=12;" vertex="1" parent="Iiy-4Ej51L4zw9ELq6eo-8">
          <mxGeometry y="56" width="99" height="30" as="geometry" />
        </mxCell>
        <mxCell id="nlnA7nwr5EOGX_mSEBAv-10" value="List" style="swimlane;fontStyle=0;childLayout=stackLayout;horizontal=1;startSize=26;horizontalStack=0;resizeParent=1;resizeParentMax=0;resizeLast=0;collapsible=1;marginBottom=0;align=center;fontSize=14;" parent="1" vertex="1">
          <mxGeometry x="1100" y="380" width="160" height="116" as="geometry" />
        </mxCell>
        <mxCell id="nlnA7nwr5EOGX_mSEBAv-11" value="任务时间（起始 -终止）" style="text;strokeColor=none;fillColor=none;spacingLeft=4;spacingRight=4;overflow=hidden;rotatable=0;points=[[0,0.5],[1,0.5]];portConstraint=eastwest;fontSize=12;" parent="nlnA7nwr5EOGX_mSEBAv-10" vertex="1">
          <mxGeometry y="26" width="160" height="30" as="geometry" />
        </mxCell>
        <mxCell id="nlnA7nwr5EOGX_mSEBAv-12" value="Item 2" style="text;strokeColor=none;fillColor=none;spacingLeft=4;spacingRight=4;overflow=hidden;rotatable=0;points=[[0,0.5],[1,0.5]];portConstraint=eastwest;fontSize=12;" parent="nlnA7nwr5EOGX_mSEBAv-10" vertex="1">
          <mxGeometry y="56" width="160" height="30" as="geometry" />
        </mxCell>
        <mxCell id="nlnA7nwr5EOGX_mSEBAv-13" value="Item 3" style="text;strokeColor=none;fillColor=none;spacingLeft=4;spacingRight=4;overflow=hidden;rotatable=0;points=[[0,0.5],[1,0.5]];portConstraint=eastwest;fontSize=12;" parent="nlnA7nwr5EOGX_mSEBAv-10" vertex="1">
          <mxGeometry y="86" width="160" height="30" as="geometry" />
        </mxCell>
        <mxCell id="Iiy-4Ej51L4zw9ELq6eo-12" value="" style="endArrow=open;endFill=1;endSize=12;html=1;exitX=0;exitY=0.5;exitDx=0;exitDy=0;entryX=1.013;entryY=0.133;entryDx=0;entryDy=0;entryPerimeter=0;" edge="1" parent="1" source="Iiy-4Ej51L4zw9ELq6eo-2" target="nlnA7nwr5EOGX_mSEBAv-12">
          <mxGeometry width="160" relative="1" as="geometry">
            <mxPoint x="260" y="600" as="sourcePoint" />
            <mxPoint x="420" y="600" as="targetPoint" />
          </mxGeometry>
        </mxCell>
        <mxCell id="nlnA7nwr5EOGX_mSEBAv-7" value="action_activity" style="swimlane;childLayout=stackLayout;horizontal=1;startSize=30;horizontalStack=0;rounded=1;fontSize=14;fontStyle=0;strokeWidth=2;resizeParent=0;resizeLast=1;shadow=0;dashed=0;align=center;" parent="1" vertex="1">
          <mxGeometry x="50" y="373" width="170" height="140" as="geometry" />
        </mxCell>
        <mxCell id="nlnA7nwr5EOGX_mSEBAv-8" value="+member_id&#xa;+action_type&#xa;+action_id&#xa;+content_type&#xa;+content_id" style="align=left;strokeColor=none;fillColor=none;spacingLeft=4;fontSize=12;verticalAlign=top;resizable=0;rotatable=0;part=1;" parent="nlnA7nwr5EOGX_mSEBAv-7" vertex="1">
          <mxGeometry y="30" width="170" height="110" as="geometry" />
        </mxCell>
        <mxCell id="Iiy-4Ej51L4zw9ELq6eo-15" value="" style="html=1;shape=mxgraph.flowchart.annotation_2;align=left;labelPosition=right;direction=south;" vertex="1" parent="1">
          <mxGeometry x="805" y="430" width="100" height="310" as="geometry" />
        </mxCell>
      </root>
    </mxGraphModel>
  </diagram>
</mxfile>
